<?xml version="1.0" encoding="iso-8859-1"?>
<!-- Generator: Adobe Illustrator 19.0.0, SVG Export Plug-In . SVG Version: 6.00 Build 0)  -->
<svg version="1.1" id="Capa_1" xmlns="http://www.w3.org/2000/svg" xmlns:xlink="http://www.w3.org/1999/xlink" x="0px" y="0px"
	 viewBox="0 0 53 53" style="enable-background:new 0 0 53 53;" xml:space="preserve">
<g>
	<g>
		<path d="M43.507,0H33.5h-14H9.493C6.74,0,4.5,2.248,4.5,5.01v39.98C4.5,47.752,6.74,50,9.493,50H11.5v3h2v-3h6h14h8v3h2v-3h0.007
			c2.753,0,4.993-2.248,4.993-5.01V5.01C48.5,2.248,46.26,0,43.507,0z M11.5,48H9.493C7.843,48,6.5,46.65,6.5,44.99V5.01
			C6.5,3.35,7.843,2,9.493,2H18.5v46h-5H11.5z M20.5,2h12v46h-12V2z M46.5,44.99c0,1.66-1.343,3.01-2.993,3.01H43.5h-2h-7V2h9.007
			c1.65,0,2.993,1.35,2.993,3.01V44.99z"/>
		<rect x="14.5" y="21" width="2" height="7"/>
		<rect x="22.5" y="21" width="2" height="7"/>
		<rect x="36.5" y="21" width="2" height="7"/>
	</g>
</g>
<g>
</g>
<g>
</g>
<g>
</g>
<g>
</g>
<g>
</g>
<g>
</g>
<g>
</g>
<g>
</g>
<g>
</g>
<g>
</g>
<g>
</g>
<g>
</g>
<g>
</g>
<g>
</g>
<g>
</g>
</svg>
